<?xml version="1.0" encoding="UTF-8"?>
<svg width="30px" height="47px" viewBox="0 0 30 47" version="1.1" xmlns="http://www.w3.org/2000/svg" xmlns:xlink="http://www.w3.org/1999/xlink">
    <!-- Generator: Sketch 49 (51002) - http://www.bohemiancoding.com/sketch -->
    <title>kushy-logo-short-white</title>
    <desc>Created with Sketch.</desc>
    <defs></defs>
    <g id="Page-1" stroke="none" stroke-width="1" fill="none" fill-rule="evenodd">
        <g id="kushy-logo-short-white" fill="#CC2029">
            <path d="M0.10802164,34.7677527 C-0.0780151621,34.2181279 -0.023755242,33.3326348 0.27080303,32.1112465 C0.565361301,30.8898583 1.0149435,29.4623822 1.6195631,27.8287754 C2.22418271,26.1951687 2.92956167,24.4318159 3.73572116,22.5386641 C4.54188064,20.6455123 5.37128228,18.7371219 6.22395096,16.8134354 C7.07661963,14.8897489 7.89826985,13.0195262 8.68892627,11.2027112 C9.47958271,9.3858962 10.1694588,7.75994755 10.7585753,6.32481638 C11.3476919,4.8896852 11.7817712,3.69884954 12.0608264,2.75227366 C12.3398816,1.80569778 12.3863901,1.24081419 12.2003533,1.05760596 C11.9833104,0.87439772 12.0840788,0.66065799 12.5026616,0.41638034 C12.9212444,0.17210269 13.4483408,0.03469858 14.0839666,0.00416387 C14.7195923,-0.026370834 15.3629599,0.11103328 16.0140887,0.41638034 C16.6652175,0.7217274 17.1303026,1.33241235 17.4093578,2.24845353 C17.5953946,2.88968235 17.5023776,3.88204541 17.130304,5.22557246 C16.7582304,6.56909952 16.2156312,8.1187126 15.5024901,9.8744582 C14.789349,11.6302038 13.9599474,13.5156936 13.0142603,15.5309842 C12.0685732,17.5462747 11.1151489,19.546268 10.1539588,21.5310239 C10.8050876,21.0119339 11.5337208,20.4394167 12.3398803,19.8134552 C13.1460397,19.1874938 13.9599385,18.538641 14.7816011,17.8668775 C15.6032636,17.1951139 16.4016596,16.5157269 17.1768129,15.8286961 C17.9519663,15.1416652 18.6418424,14.5080795 19.246462,13.9279201 C19.8510816,13.3477607 20.3394209,12.8210449 20.7114945,12.347757 C21.0835681,11.874469 21.2696021,11.5004245 21.2696021,11.2256122 C21.2696021,10.9507998 21.5021446,10.8744642 21.9672366,10.996603 C22.4323287,11.1187418 22.8974137,11.4011836 23.3625057,11.8439369 C23.8275977,12.2866901 24.1686601,12.8515737 24.385703,13.5386046 C24.6027459,14.2256354 24.4632204,14.9813581 23.9671223,15.8057951 C23.5950487,16.447024 23.0136924,17.072976 22.223036,17.6836702 C21.4323796,18.2943643 20.5409666,18.874515 19.5487703,19.4241397 C18.556574,19.9737644 17.5178841,20.4928466 16.4326694,20.9814019 C15.3474548,21.4699572 14.3087649,21.9127038 13.3165686,22.309655 C13.7816606,23.0119532 14.3630169,24.0043162 15.0606549,25.2867739 C15.7582929,26.5692315 16.541186,27.9814405 17.4093578,29.5234431 C18.2775295,31.0654458 19.2076996,32.630326 20.1998959,34.2181307 C21.1920921,35.8059354 22.2230306,37.2563122 23.2927422,38.5693045 C24.3624539,39.8822969 25.4321494,40.9586291 26.501861,41.7983335 C27.5715727,42.6380379 28.618014,43.073151 29.6412164,43.1036857 C29.9202716,43.1036857 30.0365428,43.3097918 29.9900336,43.7220104 C29.9435244,44.1342289 29.7342362,44.5846091 29.3621626,45.0731643 C28.990089,45.5617196 28.4629926,46.0120998 27.7808577,46.4243183 C27.0987227,46.8365369 26.2770725,47.0273759 25.3158824,46.9968412 C23.8585941,46.9663065 22.556356,46.3861558 21.409129,45.2563717 C20.2619021,44.1265876 19.2309636,42.7143786 18.3162827,41.0197024 C17.4016017,39.3250262 16.5799515,37.4929714 15.8513073,35.5234828 C15.1226632,33.5539943 14.4560413,31.6990388 13.8514217,29.9585605 C13.2468021,28.2180823 12.6887001,26.7448048 12.1770989,25.538684 C11.6654977,24.3325631 11.1461527,23.6379089 10.6190484,23.4547007 C10.1849626,23.6684436 9.80514311,23.8592827 9.47957871,24.0272236 C9.15401431,24.1951645 8.88271472,24.3554693 8.66567178,24.5081428 C7.98353684,25.9127393 7.35567205,27.2486126 6.78205857,28.5158029 C6.2084451,29.7829932 5.72785723,30.9203939 5.34028056,31.9280392 C4.95270389,32.9356845 4.67365287,33.7906434 4.50311914,34.4929417 C4.3325854,35.1952399 4.32483398,35.6837879 4.47986465,35.9586002 C4.60388919,36.2028779 4.50312076,36.4547854 4.17755636,36.7143304 C3.85199196,36.9738754 3.43341542,37.1112795 2.92181421,37.1265469 C2.410213,37.1418142 1.88311664,36.9815094 1.3405093,36.6456277 C0.797901951,36.3097459 0.387076841,35.6837938 0.10802164,34.7677527 Z" id="Shape"></path>
        </g>
    </g>
</svg>